<?xml version="1.0" standalone="no"?>
<!DOCTYPE svg PUBLIC "-//W3C//DTD SVG 20010904//EN"
 "http://www.w3.org/TR/2001/REC-SVG-20010904/DTD/svg10.dtd">
<svg version="1.0" xmlns="http://www.w3.org/2000/svg"
 width="25.000000pt" height="25.000000pt" viewBox="0 0 200.000000 200.000000"
 preserveAspectRatio="xMidYMid meet">

<g transform="translate(0.000000,200.000000) scale(0.100000,-0.100000)"
fill="#000000" stroke="none">
<path d="M502 1328 c-16 -16 -15 -43 2 -57 9 -8 149 -10 501 -9 452 3 489 4
499 21 8 12 8 22 0 35 -10 16 -47 17 -500 20 -373 2 -493 -1 -502 -10z"/>
<path d="M502 1128 c-16 -16 -15 -43 2 -57 9 -8 149 -10 501 -9 452 3 489 4
499 21 8 12 8 22 0 35 -10 16 -47 17 -500 20 -373 2 -493 -1 -502 -10z"/>
<path d="M502 928 c-16 -16 -15 -43 2 -57 9 -8 149 -10 501 -9 452 3 489 4
499 21 8 12 8 22 0 35 -10 16 -47 17 -500 20 -373 2 -493 -1 -502 -10z"/>
<path d="M502 728 c-16 -16 -15 -43 2 -57 9 -8 149 -10 501 -9 452 3 489 4
499 21 8 12 8 22 0 35 -10 16 -47 17 -500 20 -373 2 -493 -1 -502 -10z"/>
</g>
</svg>
